<svg width="70" height="25" viewBox="0 0 70 25" fill="none" xmlns="http://www.w3.org/2000/svg">
<g clip-path="url(#clip0_57_1479)">
<path d="M16.3336 0H8.65938C1.65625 0 -0.00390625 1.66016 -0.00390625 8.66328V16.3375C-0.00390625 23.3406 1.65625 25.0008 8.65938 25.0008H16.3336C23.3367 25.0008 24.9969 23.3406 24.9969 16.3375V8.66328C24.9969 1.66016 23.3203 0 16.3336 0ZM20.1789 17.8344H18.3641C17.6766 17.8344 17.4648 17.2891 16.2281 16.0359C15.1539 14.9945 14.6781 14.8563 14.4133 14.8563C14.0391 14.8563 13.9328 14.9617 13.9328 15.475V17.1148C13.9328 17.5547 13.7945 17.8188 12.6305 17.8188C10.7055 17.8188 8.56953 16.6547 7.07188 14.4859C4.81328 11.3078 4.19531 8.92734 4.19531 8.43516C4.19531 8.17031 4.30078 7.92266 4.80938 7.92266H6.62813C7.08828 7.92266 7.26328 8.13437 7.44219 8.62656C8.34141 11.2227 9.83907 13.4969 10.457 13.4969C10.6852 13.4969 10.7906 13.3914 10.7906 12.8094V10.1281C10.7211 8.89141 10.0703 8.78516 10.0703 8.34609C10.0703 8.13437 10.2453 7.92266 10.5258 7.92266H13.3859C13.7727 7.92266 13.9148 8.13437 13.9148 8.58984V12.207C13.9148 12.5977 14.0898 12.7359 14.1953 12.7359C14.4234 12.7359 14.6188 12.5977 15.0414 12.1742C16.3477 10.7094 17.2836 8.45078 17.2836 8.45078C17.4055 8.18594 17.6172 7.93828 18.0773 7.93828H19.8961C20.4414 7.93828 20.5633 8.21875 20.4414 8.60938C20.2133 9.66719 17.9875 12.8086 17.9875 12.8086C17.7961 13.1258 17.7227 13.2641 17.9875 13.618C18.1828 13.8828 18.818 14.432 19.2406 14.9242C20.018 15.807 20.6156 16.5477 20.775 17.0602C20.9539 17.5688 20.6898 17.8336 20.1766 17.8336L20.1789 17.8344Z" fill="#E0E0E0"/>
</g>
<path d="M57.4966 8.33156C55.2014 8.33156 53.3283 10.2047 53.3283 12.5C53.3283 14.7953 55.2014 16.6684 57.4966 16.6684C59.7919 16.6684 61.665 14.7953 61.665 12.5C61.665 10.2047 59.7919 8.33156 57.4966 8.33156ZM69.9986 12.5C69.9986 10.7738 70.0142 9.0633 69.9173 7.34026C69.8204 5.33891 69.3638 3.56271 67.9004 2.09922C66.4338 0.632607 64.6607 0.179176 62.6594 0.082235C60.9333 -0.0147055 59.2228 0.000930141 57.4998 0.000930141C55.7736 0.000930141 54.0631 -0.0147055 52.3401 0.082235C50.3388 0.179176 48.5626 0.635734 47.0992 2.09922C45.6326 3.56584 45.1792 5.33891 45.0822 7.34026C44.9853 9.06643 45.0009 10.777 45.0009 12.5C45.0009 14.223 44.9853 15.9367 45.0822 17.6597C45.1792 19.6611 45.6357 21.4373 47.0992 22.9008C48.5658 24.3674 50.3388 24.8208 52.3401 24.9178C54.0663 25.0147 55.7768 24.9991 57.4998 24.9991C59.2259 24.9991 60.9364 25.0147 62.6594 24.9178C64.6607 24.8208 66.4369 24.3643 67.9004 22.9008C69.3669 21.4342 69.8204 19.6611 69.9173 17.6597C70.0174 15.9367 69.9986 14.2262 69.9986 12.5ZM57.4966 18.9137C53.9474 18.9137 51.0831 16.0493 51.0831 12.5C51.0831 8.95073 53.9474 6.08629 57.4966 6.08629C61.0458 6.08629 63.9102 8.95073 63.9102 12.5C63.9102 16.0493 61.0458 18.9137 57.4966 18.9137ZM64.1729 7.3215C63.3442 7.3215 62.675 6.6523 62.675 5.82361C62.675 4.99493 63.3442 4.32573 64.1729 4.32573C65.0016 4.32573 65.6708 4.99493 65.6708 5.82361C65.671 6.02039 65.6324 6.21528 65.5572 6.39712C65.4821 6.57897 65.3717 6.74419 65.2326 6.88333C65.0935 7.02247 64.9282 7.1328 64.7464 7.20798C64.5646 7.28317 64.3697 7.32175 64.1729 7.3215Z" fill="#E0E0E0"/>
<defs>
<clipPath id="clip0_57_1479">
<rect width="25" height="25" fill="white"/>
</clipPath>
</defs>
</svg>
