<svg width="15" height="15" viewBox="0 0 15 15" fill="none" xmlns="http://www.w3.org/2000/svg">
<path d="M11.2499 9.375C11.1039 9.37528 10.9623 9.32442 10.8499 9.23125L7.49989 6.43125L4.14364 9.13125C4.07971 9.18316 4.00615 9.22193 3.92719 9.24533C3.84822 9.26872 3.76542 9.27628 3.68352 9.26757C3.60163 9.25886 3.52227 9.23405 3.44999 9.19456C3.37772 9.15508 3.31396 9.1017 3.26239 9.0375C3.21047 8.97357 3.1717 8.90001 3.14831 8.82104C3.12491 8.74208 3.11735 8.65927 3.12607 8.57738C3.13478 8.49549 3.15959 8.41612 3.19907 8.34385C3.23856 8.27158 3.29193 8.20782 3.35614 8.15625L7.10614 5.1375C7.21797 5.04557 7.35825 4.99532 7.50301 4.99532C7.64778 4.99532 7.78806 5.04557 7.89989 5.1375L11.6499 8.2625C11.7132 8.31496 11.7655 8.3794 11.8038 8.45212C11.8422 8.52484 11.8658 8.6044 11.8734 8.68626C11.8809 8.76812 11.8722 8.85067 11.8478 8.92917C11.8234 9.00767 11.7838 9.08059 11.7311 9.14375C11.673 9.21544 11.5997 9.27336 11.5165 9.31335C11.4332 9.35333 11.3422 9.37438 11.2499 9.375Z" fill="#3FCF5E"/>
</svg>
